<?xml version="1.0" encoding="utf-8"?>
<svg xmlns="http://www.w3.org/2000/svg" viewBox="0 0 64 64" width="512" height="512">
  <path d="M32.25 6.9492188C27.67 6.8992187 23.069609 7.1903125 18.599609 8.0703125C16.379609 8.5203125 14.170625 9.1102344 12.140625 9.9902344C11.130625 10.430234 10.159375 10.949844 9.359375 11.589844C8.559375 12.219844 7.99 12.999219 8 13.699219C7.99 14.399219 8.559375 15.180547 9.359375 15.810547C10.159375 16.450547 11.130625 16.970156 12.140625 17.410156C14.170625 18.290156 16.379609 18.880078 18.599609 19.330078C23.069609 20.210078 27.67 20.499219 32.25 20.449219C36.83 20.379219 41.400312 19.940234 45.820312 18.990234C48.030312 18.510234 50.209453 17.899531 52.189453 17.019531C53.159453 16.579531 54.109844 16.059219 54.839844 15.449219C55.599844 14.849219 56.03 14.149219 56 13.699219C56.03 13.249219 55.599844 12.549219 54.839844 11.949219C54.109844 11.339219 53.159453 10.820859 52.189453 10.380859C50.209453 9.5008594 48.030313 8.8901563 45.820312 8.4101562C41.400312 7.4601562 36.83 7.0192188 32.25 6.9492188 z M 8.1308594 17.429688L11.460938 28.529297C12.190938 28.999297 12.950703 29.420547 13.720703 29.810547C15.570703 30.740547 17.529063 31.459063 19.539062 32.039062C21.559063 32.559062 23.620938 32.979219 25.710938 33.199219C26.750937 33.349219 27.799609 33.370703 28.849609 33.470703C29.899609 33.510703 30.95 33.509297 32 33.529297C33.05 33.489297 34.100391 33.470391 35.150391 33.400391C36.190391 33.290391 37.239297 33.250078 38.279297 33.080078C40.349297 32.810078 42.390625 32.360781 44.390625 31.800781C46.370625 31.190781 48.299375 30.440469 50.109375 29.480469C51.009375 29.000469 51.910234 28.460859 52.740234 27.880859L55.519531 18.589844C54.809531 19.019844 54.089141 19.369453 53.369141 19.689453C51.089141 20.679453 48.750156 21.299297 46.410156 21.779297C41.710156 22.699297 36.97 22.999219 32.25 22.949219C27.53 22.879219 22.810156 22.439688 18.160156 21.429688C15.840156 20.929688 13.530781 20.290781 11.300781 19.300781C10.210781 18.810781 9.1308594 18.239687 8.1308594 17.429688 z M 9.109375 29.390625L12.279297 41.039062C12.899297 41.479063 13.549219 41.899297 14.199219 42.279297C15.949219 43.289297 17.82 44.120234 19.75 44.740234C23.64 45.960234 27.739844 46.480938 31.839844 46.460938C35.939844 46.450938 40.019141 45.839609 43.869141 44.599609C45.769141 43.949609 47.620078 43.139141 49.330078 42.119141C50.200078 41.629141 51.009062 41.050938 51.789062 40.460938C51.829062 40.430937 51.860391 40.399141 51.900391 40.369141L54.710938 30.080078C53.660937 30.830078 52.559688 31.449297 51.429688 32.029297C49.409688 33.049297 47.300391 33.829453 45.150391 34.439453C42.990391 35.009453 40.799609 35.439687 38.599609 35.679688C37.509609 35.839688 36.400781 35.870937 35.300781 35.960938C34.200781 36.010938 33.1 36.009297 32 36.029297C30.9 35.989297 29.799219 35.960391 28.699219 35.900391C27.609219 35.780391 26.500156 35.730547 25.410156 35.560547C23.220156 35.280547 21.049922 34.799219 18.919922 34.199219C16.799922 33.549219 14.720234 32.739219 12.740234 31.699219C11.480234 31.019219 10.249375 30.290625 9.109375 29.390625 z M 10 42L13 53C13 53 17 59 32 59C47 59 51 53 51 53L53.839844 42.580078C53.749844 42.650078 53.670078 42.709297 53.580078 42.779297C52.680078 43.449297 51.749297 44.079375 50.779297 44.609375C48.839297 45.709375 46.800937 46.550703 44.710938 47.220703C40.510938 48.490703 36.150078 49.040937 31.830078 48.960938C27.510078 48.900938 23.169062 48.269141 19.039062 46.869141C16.979063 46.159141 14.989375 45.239375 13.109375 44.109375C12.079375 43.469375 11.080391 42.78 10.150391 42L10 42 z" fill="#5B5B5B" />
</svg>